# xmcd
#
# Track frame offsets: 
#        150
#        22216
#        42179
#        60575
#        79990
#        105282
#        126447
#        150642
#        172251
#        191235
#        212740
#        232037
#
# Disc length: 3375 seconds
#
# Revision: 0
# Processed by: cddbd v1.5.2PL0 Copyright (c) Steve Scherf et al.
# Submitted via: ExactAudioCopyFreeDBPlugin 1.0
#
DISCID=ab0d2d0c
DTITLE=江智民 - 男人故事
DYEAR=2009
DGENRE=Folk
TTITLE0=风平浪静
TTITLE1=写给海洋
TTITLE2=不装饰你的梦
TTITLE3=逝去的诺言
TTITLE4=掌声响起了
TTITLE5=情锁
TTITLE6=为爱痴狂
TTITLE7=丁香花
TTITLE8=爱太任性
TTITLE9=我的幸福
TTITLE10=Time to say good-bye告别时刻
TTITLE11=让生命去等候
EXTD=
EXTT0=
EXTT1=
EXTT2=
EXTT3=
EXTT4=
EXTT5=
EXTT6=
EXTT7=
EXTT8=
EXTT9=
EXTT10=
EXTT11=
PLAYORDER=
